<svg xmlns="http://www.w3.org/2000/svg" xmlns:xlink="http://www.w3.org/1999/xlink" width="1920" height="2567" viewBox="0 0 1920 2567">
  <defs>
    <clipPath id="clip-path">
      <rect width="588" height="273" fill="none"/>
    </clipPath>
    <clipPath id="clip-path-2">
      <rect id="Retângulo_3" data-name="Retângulo 3" width="230" height="220" transform="translate(372 593)" fill="#f6f6f6"/>
    </clipPath>
    <clipPath id="clip-path-3">
      <rect width="588" height="389" fill="none"/>
    </clipPath>
    <clipPath id="clip-path-5">
      <rect width="321" height="198" fill="none"/>
    </clipPath>
    <clipPath id="clip-path-6">
      <rect width="146" height="186" fill="none"/>
    </clipPath>
    <clipPath id="clip-path-7">
      <rect width="509" height="20" fill="none"/>
    </clipPath>
    <clipPath id="clip-Web_1920_services">
      <rect width="1920" height="2567"/>
    </clipPath>
  </defs>
  <g id="Web_1920_services" data-name="Web 1920 – services" clip-path="url(#clip-Web_1920_services)">
    <rect width="1920" height="2567" fill="#fff"/>
    <path id="hero-wrapper" d="M0,0H1280V602.235Z" transform="translate(321 80)" fill="#d5ccdb"/>
    <rect id="body" width="1920" height="2568" fill="#e8ecf6"/>
    <path id="boxed" d="M0,0H1280V2568H0Z" transform="translate(320 -9)" fill="#f6f6f6"/>
    <path id="hero-wrapper-2" data-name="hero-wrapper" d="M-.025,0H1280V343.94H-1Z" transform="translate(321 107)" fill="#d5ccdb"/>
    <text id="SERVICES" transform="translate(813 151)" fill="#6f3198" font-size="40" font-family="IBMPlexSans-Bold, IBM Plex Sans" font-weight="700" letter-spacing="-0.03em"><tspan x="54.42" y="41">SERVICES</tspan></text>
    <text id="See_how_I_can_help_your_business_s_growth" data-name="See how I can help your business &apos;s growth" transform="translate(432 234)" fill="#7577aa" font-size="40" font-family="IBMPlexSans-Italic, IBM Plex Sans" font-style="italic" letter-spacing="-0.03em"><tspan x="192.52" y="41">See how I can help your business &apos;s growth</tspan></text>
    <g id="Repetição_de_grade_9" data-name="Repetição de grade 9" transform="translate(932 524)" clip-path="url(#clip-path)">
      <g transform="translate(-372 -597)">
        <text id="I_develop_mobile_apps_and_web_sites_using_Angular_Rect_and_Java_for_Android_apps_I_develop_mobile_apps_and_web_sites_using_Angular_Rect_and_Java_for_Android_apps_" data-name="I develop mobile apps and web sites, using Angular, Rect and Java (for Android apps) I develop mobile apps and web sites, using Angular, Rect and Java (for Android apps)" transform="translate(374 600)" fill="#6d6d6d" font-size="18" font-family="IBMPlexSans, IBM Plex Sans" letter-spacing="-0.03em"><tspan x="0" y="18">I develop mobile apps and web sites, using Angular, Rect and Java (for </tspan><tspan x="0" y="41">Android apps) I develop mobile apps and web sites, using Angular, Rect and </tspan><tspan x="0" y="64">Java (for Android apps)</tspan></text>
      </g>
      <g transform="translate(-372 -502)">
        <text id="I_develop_mobile_apps_and_web_sites_using_Angular_Rect_and_Java_for_Android_apps_I_develop_mobile_apps_and_web_sites_using_Angular_Rect_and_Java_for_Android_apps_2" data-name="I develop mobile apps and web sites, using Angular, Rect and Java (for Android apps) I develop mobile apps and web sites, using Angular, Rect and Java (for Android apps)" transform="translate(374 600)" fill="#6d6d6d" font-size="18" font-family="IBMPlexSans, IBM Plex Sans" letter-spacing="-0.03em"><tspan x="0" y="18">I develop mobile apps and web sites, using Angular, Rect and Java (for </tspan><tspan x="0" y="41">Android apps) I develop mobile apps and web sites, using Angular, Rect and </tspan><tspan x="0" y="64">Java (for Android apps)</tspan></text>
      </g>
      <g transform="translate(-372 -407)">
        <text id="I_develop_mobile_apps_and_web_sites_using_Angular_Rect_and_Java_for_Android_apps_I_develop_mobile_apps_and_web_sites_using_Angular_Rect_and_Java_for_Android_apps_3" data-name="I develop mobile apps and web sites, using Angular, Rect and Java (for Android apps) I develop mobile apps and web sites, using Angular, Rect and Java (for Android apps)" transform="translate(374 600)" fill="#6d6d6d" font-size="18" font-family="IBMPlexSans, IBM Plex Sans" letter-spacing="-0.03em"><tspan x="0" y="18">I develop mobile apps and web sites, using Angular, Rect and Java (for </tspan><tspan x="0" y="41">Android apps) I develop mobile apps and web sites, using Angular, Rect and </tspan><tspan x="0" y="64">Java (for Android apps)</tspan></text>
      </g>
    </g>
    <rect id="Retângulo_28" data-name="Retângulo 28" width="640" height="10" rx="5" transform="translate(640 304)" fill="#fff"/>
    <g id="Agrupar_74" data-name="Agrupar 74" transform="translate(39 -7)">
      <g id="button" transform="translate(497 -33)">
        <path id="Caminho_86" data-name="Caminho 86" d="M4,0h98a4,4,0,0,1,4,4V36a4,4,0,0,1-4,4H4a4,4,0,0,1-4-4V4A4,4,0,0,1,4,0Z" transform="translate(428 374)" fill="#7577aa"/>
        <text id="Call_me_" data-name="Call me!" transform="translate(432 383)" fill="#f6f6f6" font-size="15" font-family="IBMPlexSans, IBM Plex Sans" letter-spacing="-0.03em"><tspan x="25.305" y="15">Call me!</tspan></text>
      </g>
      <g id="button-2" data-name="button" transform="translate(383 -33)">
        <path id="Caminho_86-2" data-name="Caminho 86" d="M4,0h98a4,4,0,0,1,4,4V36a4,4,0,0,1-4,4H4a4,4,0,0,1-4-4V4A4,4,0,0,1,4,0Z" transform="translate(428 374)" fill="#7577aa"/>
        <text id="Call_me_2" data-name="Call me!" transform="translate(432 383)" fill="#f6f6f6" font-size="15" font-family="IBMPlexSans, IBM Plex Sans" letter-spacing="-0.03em"><tspan x="25.305" y="15">Call me!</tspan></text>
      </g>
    </g>
    <g id="Agrupar_13" data-name="Agrupar 13" transform="translate(125 -173)">
      <g id="Agrupar_76" data-name="Agrupar 76">
        <g id="Agrupar_1" data-name="Agrupar 1" transform="translate(-14 67)">
          <g id="Grupo_de_máscara_1" data-name="Grupo de máscara 1" clip-path="url(#clip-path-2)">
            <g id="monitor-window" transform="translate(356.318 571.661)">
              <path id="Caminho_4" data-name="Caminho 4" d="M236.534,146.181A104.545,104.545,0,1,0,36.748,189.306H227.23A104.231,104.231,0,0,0,236.534,146.181Z" fill="#f6f6f6"/>
              <line id="Linha_1" data-name="Linha 1" x2="203.864" transform="translate(28.75 189.306)" fill="none" stroke="#7577aa" stroke-linecap="round" stroke-linejoin="round" stroke-width="2.614"/>
              <line id="Linha_2" data-name="Linha 2" x2="6.534" transform="translate(16.989 189.306)" fill="none" stroke="#7577aa" stroke-linecap="round" stroke-linejoin="round" stroke-width="2.614"/>
              <line id="Linha_3" data-name="Linha 3" x2="6.534" transform="translate(237.841 189.306)" fill="none" stroke="#7577aa" stroke-linecap="round" stroke-linejoin="round" stroke-width="2.614"/>
              <rect id="Retângulo_14" data-name="Retângulo 14" width="126.239" height="90.17" rx="9.409" transform="translate(61.813 107.917)" fill="#f6f6f6"/>
              <path id="Caminho_5" data-name="Caminho 5" d="M138.157,107.917H72.633a10.82,10.82,0,0,0-10.82,10.82v65.524Z" fill="#f6f6f6"/>
              <rect id="Retângulo_15" data-name="Retângulo 15" width="126.239" height="90.17" rx="9.409" transform="translate(61.813 107.917)" stroke-width="2.614" stroke="#7577aa" stroke-linecap="round" stroke-linejoin="round" fill="#f6f6f6"/>
              <path id="Caminho_6" data-name="Caminho 6" d="M177.231,198.087a10.82,10.82,0,0,0,10.951-10.82V183.66H61.812v3.607a10.82,10.82,0,0,0,10.82,10.82Z" fill="#f6f6f6" stroke="#7577aa" stroke-linecap="round" stroke-linejoin="round" stroke-width="2.614"/>
              <path id="Caminho_7" data-name="Caminho 7" d="M135.752,212.515H114.111l1.8-14.427h18.034Z" fill="#f6f6f6"/>
              <path id="Caminho_8" data-name="Caminho 8" d="M135.752,212.515H114.111l1.8-14.427h18.034Z" fill="#f6f6f6" stroke="#7577aa" stroke-linecap="round" stroke-linejoin="round" stroke-width="2.614"/>
              <path id="Caminho_9" data-name="Caminho 9" d="M148.376,219.728H101.488a7.214,7.214,0,0,1,7.214-7.214h32.435a7.24,7.24,0,0,1,7.24,7.214Z" fill="#f6f6f6" stroke="#7577aa" stroke-linecap="round" stroke-linejoin="round" stroke-width="2.614"/>
              <path id="Caminho_10" data-name="Caminho 10" d="M90.667,95.293H195.212V157.55a6.273,6.273,0,0,1-6.273,6.273h-92a6.273,6.273,0,0,1-6.273-6.273Z" fill="#f6f6f6" stroke="#7577aa" stroke-linecap="round" stroke-linejoin="round" stroke-width="2.614"/>
              <path id="Caminho_11" data-name="Caminho 11" d="M96.94,73.652h92.052a6.273,6.273,0,0,1,6.273,6.273V95.293H90.719V79.925a6.273,6.273,0,0,1,6.221-6.273Z" fill="#f6f6f6" stroke="#7577aa" stroke-linecap="round" stroke-linejoin="round" stroke-width="2.614"/>
              <circle id="Elipse_3" data-name="Elipse 3" cx="3.607" cy="3.607" r="3.607" transform="translate(97.881 80.866)" stroke-width="2.614" stroke="#7577aa" stroke-linecap="round" stroke-linejoin="round" fill="#f6f6f6"/>
              <circle id="Elipse_4" data-name="Elipse 4" cx="3.607" cy="3.607" r="3.607" transform="translate(112.308 80.866)" stroke-width="2.614" stroke="#7577aa" stroke-linecap="round" stroke-linejoin="round" fill="#f6f6f6"/>
              <circle id="Elipse_5" data-name="Elipse 5" cx="3.607" cy="3.607" r="3.607" transform="translate(126.735 80.866)" stroke-width="2.614" stroke="#7577aa" stroke-linecap="round" stroke-linejoin="round" fill="#f6f6f6"/>
              <rect id="Retângulo_16" data-name="Retângulo 16" width="14.427" height="14.427" rx="2.614" transform="translate(123.128 116.934)" stroke-width="2.614" stroke="#7577aa" stroke-linecap="round" stroke-linejoin="round" fill="#f6f6f6"/>
              <rect id="Retângulo_17" data-name="Retângulo 17" width="14.427" height="14.427" rx="2.614" transform="translate(146.573 116.934)" stroke-width="2.614" stroke="#7577aa" stroke-linecap="round" stroke-linejoin="round" fill="#f6f6f6"/>
              <rect id="Retângulo_18" data-name="Retângulo 18" width="14.427" height="14.427" rx="2.614" transform="translate(170.017 116.934)" stroke-width="2.614" stroke="#7577aa" stroke-linecap="round" stroke-linejoin="round" fill="#f6f6f6"/>
              <rect id="Retângulo_19" data-name="Retângulo 19" width="14.427" height="14.427" rx="2.614" transform="translate(123.128 138.575)" stroke-width="2.614" stroke="#7577aa" stroke-linecap="round" stroke-linejoin="round" fill="#f6f6f6"/>
              <rect id="Retângulo_20" data-name="Retângulo 20" width="14.427" height="14.427" rx="2.614" transform="translate(146.573 138.575)" stroke-width="2.614" stroke="#7577aa" stroke-linecap="round" stroke-linejoin="round" fill="#f6f6f6"/>
              <rect id="Retângulo_21" data-name="Retângulo 21" width="14.427" height="14.427" rx="2.614" transform="translate(170.017 138.575)" stroke-width="2.614" stroke="#7577aa" stroke-linecap="round" stroke-linejoin="round" fill="#f6f6f6"/>
              <rect id="Retângulo_22" data-name="Retângulo 22" width="14.427" height="7.214" rx="2.614" transform="translate(101.488 102.507)" stroke-width="2.614" stroke="#7577aa" stroke-linecap="round" stroke-linejoin="round" fill="#f6f6f6"/>
              <rect id="Retângulo_23" data-name="Retângulo 23" width="61.316" height="7.214" rx="2.614" transform="translate(123.128 102.507)" fill="#f6f6f6" stroke="#7577aa" stroke-linejoin="round" stroke-width="2.614"/>
              <line id="Linha_4" data-name="Linha 4" x2="14.427" transform="translate(101.488 116.934)" fill="none" stroke="#7577aa" stroke-linecap="round" stroke-linejoin="round" stroke-width="2.614"/>
              <line id="Linha_5" data-name="Linha 5" x2="14.427" transform="translate(101.488 124.148)" fill="none" stroke="#7577aa" stroke-linecap="round" stroke-linejoin="round" stroke-width="2.614"/>
              <line id="Linha_6" data-name="Linha 6" x2="14.427" transform="translate(101.488 131.361)" fill="none" stroke="#7577aa" stroke-linecap="round" stroke-linejoin="round" stroke-width="2.614"/>
              <line id="Linha_7" data-name="Linha 7" x2="14.427" transform="translate(101.488 138.575)" fill="none" stroke="#7577aa" stroke-linecap="round" stroke-linejoin="round" stroke-width="2.614"/>
              <line id="Linha_8" data-name="Linha 8" x2="14.427" transform="translate(101.488 145.789)" fill="none" stroke="#7577aa" stroke-linecap="round" stroke-linejoin="round" stroke-width="2.614"/>
              <line id="Linha_9" data-name="Linha 9" x2="9.017" transform="translate(101.488 153.002)" fill="none" stroke="#7577aa" stroke-linecap="round" stroke-linejoin="round" stroke-width="2.614"/>
              <path id="Caminho_12" data-name="Caminho 12" d="M218.709,192.494c-.523,1.908-1.568,1.96-2.326,0l-11.84-28.253c-.758-1.83,0-2.614,1.96-1.934l28.384,11.814c1.83.784,1.751,1.83-.157,2.352l-9.1,2.614a7.057,7.057,0,0,0-4.443,4.417Z" fill="#f6f6f6" stroke="#7577aa" stroke-linejoin="round" stroke-width="2.614"/>
              <circle id="Elipse_6" data-name="Elipse 6" cx="1.516" cy="1.516" r="1.516" transform="translate(123.416 189.358)" stroke-width="2.614" stroke="#7577aa" stroke-linecap="round" stroke-linejoin="round" fill="#f6f6f6"/>
            </g>
          </g>
        </g>
        <text id="Service_name" data-name="Service name" transform="translate(256 896)" fill="#7577aa" font-size="30" font-family="IBMPlexSans-Bold, IBM Plex Sans" font-weight="700" letter-spacing="-0.03em"><tspan x="133.17" y="31">Service name</tspan></text>
        <text id="Titulo_box_Titulo_box_Titulo_box_Titulo_box_Titulo_box_Titulo_box_Titulo_box_Titulo_box_Titulo_box_" data-name="Titulo box Titulo box Titulo box Titulo box Titulo box Titulo box Titulo box Titulo box Titulo box " transform="translate(256 951)" fill="#6d6d6d" font-size="20" font-family="IBMPlexSans, IBM Plex Sans" letter-spacing="-0.03em"><tspan x="5.7" y="21">Titulo box Titulo box Titulo box Titulo box Titulo box </tspan><tspan x="49.2" y="48">Titulo box Titulo box Titulo box Titulo box </tspan></text>
      </g>
    </g>
    <path id="hero-wrapper-3" data-name="hero-wrapper" d="M-.025,0H1280V532.789H-1Z" transform="translate(321 1101.548)" fill="#7577aa"/>
    <g id="Agrupar_63" data-name="Agrupar 63" transform="translate(0 151)">
      <g id="Repetição_de_grade_11" data-name="Repetição de grade 11" transform="translate(381 1059)" clip-path="url(#clip-path-3)">
        <g transform="translate(-372 -597)">
          <text id="I_develop_mobile_apps_and_web_sites_using_Angular_Rect_and_Java_for_Android_apps_I_develop_mobile_apps_and_web_sites_using_Angular_Rect_and_Java_for_Android_apps_4" data-name="I develop mobile apps and web sites, using Angular, Rect and Java (for Android apps) I develop mobile apps and web sites, using Angular, Rect and Java (for Android apps)" transform="translate(372 597)" fill="#f6f6f6" font-size="24" font-family="IBMPlexSans, IBM Plex Sans" letter-spacing="-0.03em"><tspan x="0" y="25">I develop mobile apps and web sites, using Angular, Rect </tspan><tspan x="0" y="57">and Java (for Android apps) I develop mobile apps and </tspan><tspan x="0" y="89">web sites, using Angular, Rect and Java (for Android apps)</tspan></text>
        </g>
        <g transform="translate(-372 -480)">
          <text id="I_develop_mobile_apps_and_web_sites_using_Angular_Rect_and_Java_for_Android_apps_I_develop_mobile_apps_and_web_sites_using_Angular_Rect_and_Java_for_Android_apps_5" data-name="I develop mobile apps and web sites, using Angular, Rect and Java (for Android apps) I develop mobile apps and web sites, using Angular, Rect and Java (for Android apps)" transform="translate(372 597)" fill="#f6f6f6" font-size="24" font-family="IBMPlexSans, IBM Plex Sans" letter-spacing="-0.03em"><tspan x="0" y="25">I develop mobile apps and web sites, using Angular, Rect </tspan><tspan x="0" y="57">and Java (for Android apps) I develop mobile apps and </tspan><tspan x="0" y="89">web sites, using Angular, Rect and Java (for Android apps)</tspan></text>
        </g>
        <g transform="translate(-372 -363)">
          <text id="I_develop_mobile_apps_and_web_sites_using_Angular_Rect_and_Java_for_Android_apps_I_develop_mobile_apps_and_web_sites_using_Angular_Rect_and_Java_for_Android_apps_6" data-name="I develop mobile apps and web sites, using Angular, Rect and Java (for Android apps) I develop mobile apps and web sites, using Angular, Rect and Java (for Android apps)" transform="translate(372 597)" fill="#f6f6f6" font-size="24" font-family="IBMPlexSans, IBM Plex Sans" letter-spacing="-0.03em"><tspan x="0" y="25">I develop mobile apps and web sites, using Angular, Rect </tspan><tspan x="0" y="57">and Java (for Android apps) I develop mobile apps and </tspan><tspan x="0" y="89">web sites, using Angular, Rect and Java (for Android apps)</tspan></text>
        </g>
      </g>
      <g id="Agrupar_41" data-name="Agrupar 41" transform="translate(801 354)">
        <g id="Agrupar_1-2" data-name="Agrupar 1" transform="translate(7 60)">
          <g id="Grupo_de_máscara_1-2" data-name="Grupo de máscara 1" clip-path="url(#clip-path-2)">
            <g id="monitor-window-2" data-name="monitor-window" transform="translate(356.318 571.661)">
              <path id="Caminho_4-2" data-name="Caminho 4" d="M236.534,146.181A104.545,104.545,0,1,0,36.748,189.306H227.23A104.231,104.231,0,0,0,236.534,146.181Z" fill="#f6f6f6"/>
              <line id="Linha_1-2" data-name="Linha 1" x2="203.864" transform="translate(28.75 189.306)" fill="none" stroke="#f6f6f6" stroke-linecap="round" stroke-linejoin="round" stroke-width="2.614"/>
              <line id="Linha_2-2" data-name="Linha 2" x2="6.534" transform="translate(16.989 189.306)" fill="none" stroke="#f6f6f6" stroke-linecap="round" stroke-linejoin="round" stroke-width="2.614"/>
              <line id="Linha_3-2" data-name="Linha 3" x2="6.534" transform="translate(237.841 189.306)" fill="none" stroke="#f6f6f6" stroke-linecap="round" stroke-linejoin="round" stroke-width="2.614"/>
              <rect id="Retângulo_14-2" data-name="Retângulo 14" width="126.239" height="90.17" rx="9.409" transform="translate(61.813 107.917)" fill="#f6f6f6"/>
              <path id="Caminho_5-2" data-name="Caminho 5" d="M138.157,107.917H72.633a10.82,10.82,0,0,0-10.82,10.82v65.524Z" fill="#f6f6f6"/>
              <rect id="Retângulo_15-2" data-name="Retângulo 15" width="126.239" height="90.17" rx="9.409" transform="translate(61.813 107.917)" stroke-width="2.614" stroke="#7577aa" stroke-linecap="round" stroke-linejoin="round" fill="#f6f6f6"/>
              <path id="Caminho_6-2" data-name="Caminho 6" d="M177.231,198.087a10.82,10.82,0,0,0,10.951-10.82V183.66H61.812v3.607a10.82,10.82,0,0,0,10.82,10.82Z" fill="#f6f6f6" stroke="#7577aa" stroke-linecap="round" stroke-linejoin="round" stroke-width="2.614"/>
              <path id="Caminho_7-2" data-name="Caminho 7" d="M135.752,212.515H114.111l1.8-14.427h18.034Z" fill="#f6f6f6"/>
              <path id="Caminho_8-2" data-name="Caminho 8" d="M135.752,212.515H114.111l1.8-14.427h18.034Z" fill="#f6f6f6" stroke="#7577aa" stroke-linecap="round" stroke-linejoin="round" stroke-width="2.614"/>
              <path id="Caminho_9-2" data-name="Caminho 9" d="M148.376,219.728H101.488a7.214,7.214,0,0,1,7.214-7.214h32.435a7.24,7.24,0,0,1,7.24,7.214Z" fill="#f6f6f6" stroke="#7577aa" stroke-linecap="round" stroke-linejoin="round" stroke-width="2.614"/>
              <path id="Caminho_10-2" data-name="Caminho 10" d="M90.667,95.293H195.212V157.55a6.273,6.273,0,0,1-6.273,6.273h-92a6.273,6.273,0,0,1-6.273-6.273Z" fill="#f6f6f6" stroke="#7577aa" stroke-linecap="round" stroke-linejoin="round" stroke-width="2.614"/>
              <path id="Caminho_11-2" data-name="Caminho 11" d="M96.94,73.652h92.052a6.273,6.273,0,0,1,6.273,6.273V95.293H90.719V79.925a6.273,6.273,0,0,1,6.221-6.273Z" fill="#f6f6f6" stroke="#7577aa" stroke-linecap="round" stroke-linejoin="round" stroke-width="2.614"/>
              <circle id="Elipse_3-2" data-name="Elipse 3" cx="3.607" cy="3.607" r="3.607" transform="translate(97.881 80.866)" stroke-width="2.614" stroke="#7577aa" stroke-linecap="round" stroke-linejoin="round" fill="#f6f6f6"/>
              <circle id="Elipse_4-2" data-name="Elipse 4" cx="3.607" cy="3.607" r="3.607" transform="translate(112.308 80.866)" stroke-width="2.614" stroke="#7577aa" stroke-linecap="round" stroke-linejoin="round" fill="#f6f6f6"/>
              <circle id="Elipse_5-2" data-name="Elipse 5" cx="3.607" cy="3.607" r="3.607" transform="translate(126.735 80.866)" stroke-width="2.614" stroke="#7577aa" stroke-linecap="round" stroke-linejoin="round" fill="#f6f6f6"/>
              <rect id="Retângulo_16-2" data-name="Retângulo 16" width="14.427" height="14.427" rx="2.614" transform="translate(123.128 116.934)" stroke-width="2.614" stroke="#7577aa" stroke-linecap="round" stroke-linejoin="round" fill="#f6f6f6"/>
              <rect id="Retângulo_17-2" data-name="Retângulo 17" width="14.427" height="14.427" rx="2.614" transform="translate(146.573 116.934)" stroke-width="2.614" stroke="#7577aa" stroke-linecap="round" stroke-linejoin="round" fill="#f6f6f6"/>
              <rect id="Retângulo_18-2" data-name="Retângulo 18" width="14.427" height="14.427" rx="2.614" transform="translate(170.017 116.934)" stroke-width="2.614" stroke="#7577aa" stroke-linecap="round" stroke-linejoin="round" fill="#f6f6f6"/>
              <rect id="Retângulo_19-2" data-name="Retângulo 19" width="14.427" height="14.427" rx="2.614" transform="translate(123.128 138.575)" stroke-width="2.614" stroke="#7577aa" stroke-linecap="round" stroke-linejoin="round" fill="#f6f6f6"/>
              <rect id="Retângulo_20-2" data-name="Retângulo 20" width="14.427" height="14.427" rx="2.614" transform="translate(146.573 138.575)" stroke-width="2.614" stroke="#7577aa" stroke-linecap="round" stroke-linejoin="round" fill="#f6f6f6"/>
              <rect id="Retângulo_21-2" data-name="Retângulo 21" width="14.427" height="14.427" rx="2.614" transform="translate(170.017 138.575)" stroke-width="2.614" stroke="#7577aa" stroke-linecap="round" stroke-linejoin="round" fill="#f6f6f6"/>
              <rect id="Retângulo_22-2" data-name="Retângulo 22" width="14.427" height="7.214" rx="2.614" transform="translate(101.488 102.507)" stroke-width="2.614" stroke="#7577aa" stroke-linecap="round" stroke-linejoin="round" fill="#f6f6f6"/>
              <rect id="Retângulo_23-2" data-name="Retângulo 23" width="61.316" height="7.214" rx="2.614" transform="translate(123.128 102.507)" fill="#f6f6f6" stroke="#7577aa" stroke-linejoin="round" stroke-width="2.614"/>
              <line id="Linha_4-2" data-name="Linha 4" x2="14.427" transform="translate(101.488 116.934)" fill="none" stroke="#f6f6f6" stroke-linecap="round" stroke-linejoin="round" stroke-width="2.614"/>
              <line id="Linha_5-2" data-name="Linha 5" x2="14.427" transform="translate(101.488 124.148)" fill="none" stroke="#f6f6f6" stroke-linecap="round" stroke-linejoin="round" stroke-width="2.614"/>
              <line id="Linha_6-2" data-name="Linha 6" x2="14.427" transform="translate(101.488 131.361)" fill="none" stroke="#f6f6f6" stroke-linecap="round" stroke-linejoin="round" stroke-width="2.614"/>
              <line id="Linha_7-2" data-name="Linha 7" x2="14.427" transform="translate(101.488 138.575)" fill="none" stroke="#f6f6f6" stroke-linecap="round" stroke-linejoin="round" stroke-width="2.614"/>
              <line id="Linha_8-2" data-name="Linha 8" x2="14.427" transform="translate(101.488 145.789)" fill="none" stroke="#f6f6f6" stroke-linecap="round" stroke-linejoin="round" stroke-width="2.614"/>
              <line id="Linha_9-2" data-name="Linha 9" x2="9.017" transform="translate(101.488 153.002)" fill="none" stroke="#f6f6f6" stroke-linecap="round" stroke-linejoin="round" stroke-width="2.614"/>
              <path id="Caminho_12-2" data-name="Caminho 12" d="M218.709,192.494c-.523,1.908-1.568,1.96-2.326,0l-11.84-28.253c-.758-1.83,0-2.614,1.96-1.934l28.384,11.814c1.83.784,1.751,1.83-.157,2.352l-9.1,2.614a7.057,7.057,0,0,0-4.443,4.417Z" fill="#f6f6f6" stroke="#7577aa" stroke-linejoin="round" stroke-width="2.614"/>
              <circle id="Elipse_6-2" data-name="Elipse 6" cx="1.516" cy="1.516" r="1.516" transform="translate(123.416 189.358)" stroke-width="2.614" stroke="#7577aa" stroke-linecap="round" stroke-linejoin="round" fill="#f6f6f6"/>
            </g>
          </g>
        </g>
        <text id="Service_name-2" data-name="Service name" transform="translate(615 927)" fill="#f6f6f6" font-size="40" font-family="IBMPlexSans-Bold, IBM Plex Sans" font-weight="700" letter-spacing="-0.03em"><tspan x="-240.88" y="0">Service name</tspan></text>
        <text id="Titulo_box_Titulo_box_Titulo_box_Titulo_box_Titulo_box_Titulo_box_Titulo_box_Titulo_box_Titulo_box_2" data-name="Titulo box Titulo box Titulo box Titulo box Titulo box Titulo box Titulo box Titulo box Titulo box " transform="translate(256 951)" fill="#f6f6f6" font-size="24" font-family="IBMPlexSans, IBM Plex Sans" letter-spacing="-0.03em"><tspan x="14.34" y="25">Titulo box Titulo box Titulo box Titulo box </tspan><tspan x="14.34" y="57">Titulo box Titulo box Titulo box Titulo box </tspan><tspan x="170.94" y="89">Titulo box </tspan></text>
      </g>
    </g>
    <g id="section-comment" transform="translate(0 -443)">
      <path id="Caminho_67" data-name="Caminho 67" d="M0,0H1280V483.733L0,488.174Z" transform="translate(320 2066)" fill="#d5ccdb"/>
      <g id="Agrupar_6" data-name="Agrupar 6" transform="translate(440 2108)">
        <text id="NEW_COMMENT" data-name="NEW COMMENT" transform="translate(-3 41)" fill="#764b8e" font-size="40" font-family="IBMPlexSans-Bold, IBM Plex Sans" font-weight="700" letter-spacing="-0.03em"><tspan x="0" y="0">NEW COMMENT</tspan></text>
        <g id="button-3" data-name="button" transform="translate(-428 -42)">
          <path id="Caminho_86-3" data-name="Caminho 86" d="M4,0h98a4,4,0,0,1,4,4V36a4,4,0,0,1-4,4H4a4,4,0,0,1-4-4V4A4,4,0,0,1,4,0Z" transform="translate(428 374)" fill="#7577aa"/>
          <text id="Submit" transform="translate(432 383)" fill="#f6f6f6" font-size="15" font-family="IBMPlexSans, IBM Plex Sans" letter-spacing="-0.03em"><tspan x="28.103" y="15">Submit</tspan></text>
        </g>
        <g id="Agrupar_68" data-name="Agrupar 68">
          <g id="Retângulo_11" data-name="Retângulo 11" transform="translate(0 78)" fill="#fff" stroke="#e8ecf6" stroke-width="1">
            <rect width="484" height="54" rx="4" stroke="none"/>
            <rect x="0.5" y="0.5" width="483" height="53" rx="3.5" fill="none"/>
          </g>
          <text id="Seu_nome" data-name="Seu nome" transform="translate(59 113)" fill="#d5ccdb" font-size="20" font-family="IBMPlexSans-Italic, IBM Plex Sans" font-style="italic" letter-spacing="-0.03em"><tspan x="-41.5" y="0">Seu nome</tspan></text>
        </g>
        <g id="Agrupar_69" data-name="Agrupar 69">
          <g id="Retângulo_29" data-name="Retângulo 29" transform="translate(542.017 78)" fill="#fff" stroke="#e8ecf6" stroke-width="1">
            <rect width="484" height="54" rx="4" stroke="none"/>
            <rect x="0.5" y="0.5" width="483" height="53" rx="3.5" fill="none"/>
          </g>
          <text id="Seu_e-mail" data-name="Seu e-mail" transform="translate(602 113)" fill="#d5ccdb" font-size="20" font-family="IBMPlexSans-Italic, IBM Plex Sans" font-style="italic" letter-spacing="-0.03em"><tspan x="-44.83" y="0">Seu e-mail</tspan></text>
        </g>
        <g id="Agrupar_70" data-name="Agrupar 70">
          <g id="Caminho_85" data-name="Caminho 85" transform="translate(0 162)" fill="#fff">
            <path d="M 1022.016967773438 143.5 L 3.999983787536621 143.5 C 2.070108890533447 143.5 0.4999838769435883 141.9298706054688 0.4999838769435883 140 L 0.4999838769435883 4 C 0.4999838769435883 2.070125102996826 2.070108890533447 0.5 3.999983787536621 0.5 L 1022.016967773438 0.5 C 1023.946838378906 0.5 1025.516967773438 2.070125102996826 1025.516967773438 4 L 1025.516967773438 140 C 1025.516967773438 141.9298706054688 1023.946838378906 143.5 1022.016967773438 143.5 Z" stroke="none"/>
            <path d="M 4 1 C 2.34576416015625 1 1 2.345748901367188 1 4 L 1 140 C 1 141.6542510986328 2.34576416015625 143 4 143 L 1022.016967773438 143 C 1023.671203613281 143 1025.016967773438 141.6542510986328 1025.016967773438 140 L 1025.016967773438 4 C 1025.016967773438 2.345748901367188 1023.671203613281 1 1022.016967773438 1 L 4 1 M 4 0 L 1022.016967773438 0 C 1024.22607421875 0 1026.016967773438 1.790878295898438 1026.016967773438 4 L 1026.016967773438 140 C 1026.016967773438 142.2091217041016 1024.22607421875 144 1022.016967773438 144 L 4 144 C 1.7908935546875 144 0 142.2091217041016 0 140 L 0 4 C 0 1.790878295898438 1.7908935546875 0 4 0 Z" stroke="none" fill="#e8ecf6"/>
          </g>
          <text id="Deixe_aqui_o_seu_comentário_opinião_ou_sugestão" data-name="Deixe aqui o seu comentário, opinião ou sugestão" transform="translate(220 202)" fill="#d5ccdb" font-size="20" font-family="IBMPlexSans-Italic, IBM Plex Sans" font-style="italic" letter-spacing="-0.03em"><tspan x="-204.35" y="0">Deixe aqui o seu comentário, opinião ou sugestão</tspan></text>
          <text id="Deixe_aqui_o_seu_comentário_opinião_ou_sugestão-2" data-name="Deixe aqui o seu comentário, opinião ou sugestão" transform="translate(1026 347)" fill="#260339" font-size="20" font-family="IBMPlexSans-Italic, IBM Plex Sans" font-style="italic" letter-spacing="-0.03em"><tspan x="-408.7" y="0">Deixe aqui o seu comentário, opinião ou sugestão</tspan></text>
        </g>
        <g id="button-4" data-name="button" transform="translate(-307 -42)">
          <path id="Caminho_86-4" data-name="Caminho 86" d="M4,0h98a4,4,0,0,1,4,4V36a4,4,0,0,1-4,4H4a4,4,0,0,1-4-4V4A4,4,0,0,1,4,0Z" transform="translate(428 374)" fill="#7577aa"/>
          <text id="Submit-2" data-name="Submit" transform="translate(432 383)" fill="#f6f6f6" font-size="15" font-family="IBMPlexSans, IBM Plex Sans" letter-spacing="-0.03em"><tspan x="28.103" y="15">Submit</tspan></text>
        </g>
      </g>
    </g>
    <g id="section-footer" transform="translate(0 -1062.169)">
      <g id="Agrupar_51" data-name="Agrupar 51" transform="translate(0 1059)">
        <g id="Agrupar_9" data-name="Agrupar 9" transform="translate(0 385)">
          <g id="Agrupar_4" data-name="Agrupar 4" transform="translate(320 1667.169)">
            <path id="Caminho_2" data-name="Caminho 2" d="M-.031-1.354,1280,1.264V380H0Z" transform="translate(0 57.831)" fill="#582a72"/>
            <rect id="Retângulo_7" data-name="Retângulo 7" width="1280" height="80" transform="translate(0 437.831)" fill="#f6f6f6"/>
          </g>
        </g>
        <g id="Agrupar_50" data-name="Agrupar 50">
          <g id="social-grid" transform="translate(-2 2)">
            <text id="Social_Media" data-name="Social Media" transform="translate(1265 2194)" fill="#f6f6f6" font-size="40" font-family="IBMPlexSans-Bold, IBM Plex Sans" font-weight="700" letter-spacing="-0.03em"><tspan x="0" y="0">Social Media</tspan></text>
            <g id="Repetição_de_grade_6" data-name="Repetição de grade 6" transform="translate(1234 2251)" clip-path="url(#clip-path-5)">
              <g transform="translate(-992 -471)">
                <path id="Caminho_87" data-name="Caminho 87" d="M4,0H66a4,4,0,0,1,4,4V66a4,4,0,0,1-4,4H4a4,4,0,0,1-4-4V4A4,4,0,0,1,4,0Z" transform="translate(992 471)" fill="#d5ccdb"/>
              </g>
              <g transform="translate(-876 -471)">
                <path id="Caminho_87-2" data-name="Caminho 87" d="M4,0H66a4,4,0,0,1,4,4V66a4,4,0,0,1-4,4H4a4,4,0,0,1-4-4V4A4,4,0,0,1,4,0Z" transform="translate(992 471)" fill="#d5ccdb"/>
              </g>
              <g transform="translate(-760 -471)">
                <path id="Caminho_87-3" data-name="Caminho 87" d="M4,0H66a4,4,0,0,1,4,4V66a4,4,0,0,1-4,4H4a4,4,0,0,1-4-4V4A4,4,0,0,1,4,0Z" transform="translate(992 471)" fill="#d5ccdb"/>
              </g>
              <g transform="translate(-992 -355)">
                <path id="Caminho_87-4" data-name="Caminho 87" d="M4,0H66a4,4,0,0,1,4,4V66a4,4,0,0,1-4,4H4a4,4,0,0,1-4-4V4A4,4,0,0,1,4,0Z" transform="translate(992 471)" fill="#d5ccdb"/>
              </g>
              <g transform="translate(-876 -355)">
                <path id="Caminho_87-5" data-name="Caminho 87" d="M4,0H66a4,4,0,0,1,4,4V66a4,4,0,0,1-4,4H4a4,4,0,0,1-4-4V4A4,4,0,0,1,4,0Z" transform="translate(992 471)" fill="#d5ccdb"/>
              </g>
              <g transform="translate(-760 -355)">
                <path id="Caminho_87-6" data-name="Caminho 87" d="M4,0H66a4,4,0,0,1,4,4V66a4,4,0,0,1-4,4H4a4,4,0,0,1-4-4V4A4,4,0,0,1,4,0Z" transform="translate(992 471)" fill="#d5ccdb"/>
              </g>
            </g>
          </g>
          <g id="Agrupar_48" data-name="Agrupar 48">
            <text id="Janynne_Gomes" data-name="Janynne Gomes" transform="translate(379 2194)" fill="#f6f6f6" font-size="40" font-family="IBMPlexSans-Bold, IBM Plex Sans" font-weight="700" letter-spacing="-0.03em"><tspan x="0" y="0">Janynne Gomes</tspan></text>
            <text id="I_develop_mobile_apps_and_web_sites_using_Angular_React_and_Java_for_Android_apps_checkout_my_projects_pages_to_see_more..." data-name="I develop mobile apps and web sites, using Angular, React and Java (for Android apps), checkout my projects pages to see more..." transform="translate(380 2241)" fill="#d5ccdb" font-size="24" font-family="IBMPlexSans, IBM Plex Sans" letter-spacing="-0.03em"><tspan x="0" y="25">I develop mobile apps and web </tspan><tspan x="0" y="57">sites, using Angular, React and Java </tspan><tspan x="0" y="89">(for Android apps), checkout my </tspan><tspan x="0" y="121">projects pages to see more...</tspan></text>
          </g>
          <g id="Agrupar_49" data-name="Agrupar 49">
            <text id="Site_map" data-name="Site map" transform="translate(898 2194)" fill="#f6f6f6" font-size="40" font-family="IBMPlexSans-Bold, IBM Plex Sans" font-weight="700" letter-spacing="-0.03em"><tspan x="0" y="0">Site map</tspan></text>
            <g id="Repetição_de_grade_7" data-name="Repetição de grade 7" transform="translate(897 2251)" clip-path="url(#clip-path-6)">
              <g transform="translate(-897 -2251)">
                <text id="Link_title_here" data-name="Link title here" transform="translate(897 2276)" fill="#f6f6f6" font-size="24" font-family="IBMPlexSans-Bold, IBM Plex Sans" font-weight="700" letter-spacing="-0.03em" text-decoration="underline"><tspan x="0" y="0">Link title here</tspan></text>
              </g>
              <g transform="translate(-897 -2199)">
                <text id="Link_title_here-2" data-name="Link title here" transform="translate(897 2276)" fill="#f6f6f6" font-size="24" font-family="IBMPlexSans-Bold, IBM Plex Sans" font-weight="700" letter-spacing="-0.03em" text-decoration="underline"><tspan x="0" y="0">Link title here</tspan></text>
              </g>
              <g transform="translate(-897 -2147)">
                <text id="Link_title_here-3" data-name="Link title here" transform="translate(897 2276)" fill="#f6f6f6" font-size="24" font-family="IBMPlexSans-Bold, IBM Plex Sans" font-weight="700" letter-spacing="-0.03em" text-decoration="underline"><tspan x="0" y="0">Link title here</tspan></text>
              </g>
              <g transform="translate(-897 -2095)">
                <text id="Link_title_here-4" data-name="Link title here" transform="translate(897 2276)" fill="#f6f6f6" font-size="24" font-family="IBMPlexSans-Bold, IBM Plex Sans" font-weight="700" letter-spacing="-0.03em" text-decoration="underline"><tspan x="0" y="0">Link title here</tspan></text>
              </g>
            </g>
          </g>
        </g>
      </g>
      <g id="Agrupar_52" data-name="Agrupar 52" transform="translate(0 1059)">
        <text id="All_rights_reserved_-_2019_Janynne_Gomes" data-name="All rights reserved - 2019 @ Janynne Gomes" transform="translate(369 2532)" fill="#582a72" font-size="24" font-family="IBMPlexSans, IBM Plex Sans" letter-spacing="-0.03em"><tspan x="0" y="0">All rights reserved - 2019 @ Janynne Gomes</tspan></text>
        <text id="Designed_coded_with_3_" data-name="Designed &amp; coded with &lt;3 " transform="translate(1277 2532)" fill="#582a72" font-size="24" font-family="IBMPlexSans, IBM Plex Sans" letter-spacing="-0.03em"><tspan x="0" y="0">Designed &amp; coded with &lt;3 </tspan></text>
      </g>
    </g>
    <g id="nav-bar" transform="translate(0 2)">
      <path id="nav" d="M0,0H1280V104H0Z" transform="translate(320 1)" fill="#f6f6f6"/>
      <g id="Agrupar_46" data-name="Agrupar 46">
        <g id="Agrupar_44" data-name="Agrupar 44">
          <text id="JANYNNE_GOMES-2" data-name="JANYNNE GOMES" transform="translate(524 35)" fill="#7577aa" font-size="24" font-family="IBMPlexSans-Bold, IBM Plex Sans" font-weight="700" letter-spacing="-0.03em"><tspan x="-96.12" y="0">JANYNNE GOMES</tspan></text>
          <text id="My_personal_website" data-name="My personal website" transform="translate(497 58)" fill="#7577aa" font-size="16" font-family="IBMPlexSans, IBM Plex Sans" letter-spacing="-0.03em"><tspan x="-69.48" y="0">My personal website</tspan></text>
        </g>
        <g id="menu">
          <g id="Repetição_de_grade_5" data-name="Repetição de grade 5" transform="translate(864 26)" clip-path="url(#clip-path-7)">
            <g transform="translate(-1117 -20)">
              <text id="ABOUT" transform="translate(1159 36)" fill="#764b8e" font-size="16" font-family="IBMPlexSans-Bold, IBM Plex Sans" font-weight="700"><tspan x="-26.752" y="0">ABOUT</tspan></text>
            </g>
            <g transform="translate(-1013 -20)">
              <text id="PROJECTS" transform="translate(1159 36)" fill="#764b8e" font-size="16" font-family="IBMPlexSans-Bold, IBM Plex Sans" font-weight="700"><tspan x="-40.136" y="0">PROJECTS</tspan></text>
            </g>
            <g transform="translate(-909 -20)">
              <text id="SERVICES-2" data-name="SERVICES" transform="translate(1159 36)" fill="#764b8e" font-size="16" font-family="IBMPlexSans-Bold, IBM Plex Sans" font-weight="700"><tspan x="-38.712" y="0">SERVICES</tspan></text>
            </g>
            <g transform="translate(-805 -20)">
              <text id="TRAVELS" transform="translate(1159 36)" fill="#764b8e" font-size="16" font-family="IBMPlexSans-Bold, IBM Plex Sans" font-weight="700"><tspan x="-34.4" y="0">TRAVELS</tspan></text>
            </g>
            <g transform="translate(-701 -20)">
              <text id="DOWNLOADS" transform="translate(1159 36)" fill="#764b8e" font-size="16" font-family="IBMPlexSans-Bold, IBM Plex Sans" font-weight="700"><tspan x="-50.12" y="0">DOWNLOADS</tspan></text>
            </g>
          </g>
          <g id="button-5" data-name="button" transform="translate(976 -354)">
            <path id="Caminho_86-5" data-name="Caminho 86" d="M4,0h98a4,4,0,0,1,4,4V36a4,4,0,0,1-4,4H4a4,4,0,0,1-4-4V4A4,4,0,0,1,4,0Z" transform="translate(428 374)" fill="#7577aa"/>
            <text id="CONTACT" transform="translate(432 383)" fill="#f6f6f6" font-size="15" font-family="IBMPlexSans, IBM Plex Sans" letter-spacing="-0.03em"><tspan x="19.733" y="15">CONTACT</tspan></text>
          </g>
        </g>
      </g>
    </g>
    <g id="Símbolo_15_1" data-name="Símbolo 15 – 1">
      <rect id="Retângulo_34" data-name="Retângulo 34" width="1280" height="189" transform="translate(321 913)" fill="#fff"/>
      <g id="Agrupar_64" data-name="Agrupar 64" transform="translate(-52 -16)">
        <text id="Newsletter" transform="translate(416 997)" fill="#764b8e" font-size="40" font-family="IBMPlexSans-Bold, IBM Plex Sans" font-weight="700" letter-spacing="-0.03em"><tspan x="0" y="0">Newsletter</tspan></text>
        <text id="Stay_updated_with_the_latest_news_a_bout_tehnologies" data-name="Stay updated with the latest news a bout tehnologies" transform="translate(416 1012)" fill="#7577aa" font-size="30" font-family="IBMPlexSans-Italic, IBM Plex Sans" font-style="italic" letter-spacing="-0.03em"><tspan x="0" y="31">Stay updated with the latest news a bout tehnologies</tspan></text>
      </g>
      <g id="Agrupar_77" data-name="Agrupar 77">
        <g id="button-6" data-name="button" transform="translate(1023 621)">
          <path id="Caminho_86-6" data-name="Caminho 86" d="M4,0h98a4,4,0,0,1,4,4V36a4,4,0,0,1-4,4H4a4,4,0,0,1-4-4V4A4,4,0,0,1,4,0Z" transform="translate(428 374)" fill="#7577aa"/>
          <text id="Subscribe" transform="translate(432 383)" fill="#f6f6f6" font-size="15" font-family="IBMPlexSans, IBM Plex Sans" letter-spacing="-0.03em"><tspan x="19.313" y="15">Subscribe</tspan></text>
        </g>
        <g id="Retângulo_38" data-name="Retângulo 38" transform="translate(1127 995)" fill="#fff" stroke="#9775aa" stroke-width="1">
          <rect width="306" height="40" stroke="none"/>
          <rect x="0.5" y="0.5" width="305" height="39" fill="none"/>
        </g>
      </g>
    </g>
  </g>
</svg>
