<svg xmlns="http://www.w3.org/2000/svg" xmlns:xlink="http://www.w3.org/1999/xlink" width="442.025" height="314" viewBox="0 0 442.025 314">
  <defs>
    <clipPath id="clip-path">
      <path id="Caminho_3" data-name="Caminho 3" d="M0,0H442.026V314H0Z" transform="translate(1013.694 142)" fill="#7577aa"/>
    </clipPath>
  </defs>
  <g id="Agrupar_84" data-name="Agrupar 84" transform="translate(-1128.694 -210)">
    <g id="Grupo_de_máscara_2" data-name="Grupo de máscara 2" transform="translate(115 68)" clip-path="url(#clip-path)">
      <g id="radio-host" transform="translate(1029.402 78.325)">
        <path id="Caminho_13" data-name="Caminho 13" d="M399.21,246.446A177.427,177.427,0,1,0,60.148,319.634H383.375a176.1,176.1,0,0,0,15.835-73.188Z" fill="#f0f2ff"/>
        <line id="Linha_10" data-name="Linha 10" x2="345.982" transform="translate(48.792 319.634)" fill="none" stroke="#7577aa" stroke-linecap="round" stroke-linejoin="round" stroke-width="4.436"/>
        <line id="Linha_11" data-name="Linha 11" x2="46.823" y2="0.459" transform="translate(-6.902 319.175)" fill="none" stroke="#7577aa" stroke-linecap="round" stroke-linejoin="round" stroke-width="4.436"/>
        <line id="Linha_12" data-name="Linha 12" x2="11.089" transform="translate(403.646 319.634)" fill="none" stroke="#7577aa" stroke-linecap="round" stroke-linejoin="round" stroke-width="4.436"/>
        <path id="Caminho_14" data-name="Caminho 14" d="M241.744,216.239A69.418,69.418,0,0,1,310.5,285.613v34.022H172.991V285.613a69.418,69.418,0,0,1,68.753-69.374Z" fill="#fff"/>
        <path id="Caminho_15" data-name="Caminho 15" d="M241.744,216.239A69.418,69.418,0,0,1,310.5,285.613v34.022H172.991V285.613a69.418,69.418,0,0,1,68.753-69.374Z" fill="none" stroke="#7577aa" stroke-linecap="round" stroke-linejoin="round" stroke-width="4.436"/>
        <path id="Caminho_16" data-name="Caminho 16" d="M241.744,195.435c-26.614-4.436-59.172-5.323-53.228,24.4,2.706,13.662,9.226,13.795,53.228,37.7,44-23.908,50.478-24.041,53.228-37.7C300.916,190.113,268.358,191,241.744,195.435Z" fill="#fff" stroke="#7577aa" stroke-linecap="round" stroke-linejoin="round" stroke-width="4.436"/>
        <path id="Caminho_17" data-name="Caminho 17" d="M241.744,195.435c-20.936-3.5-45.6-4.791-52.208,9.315,5.278,12.6,10.069,15.259,52.208,30.606,42.139-15.347,46.929-18.009,52.208-30.606C287.3,190.734,262.68,191.931,241.744,195.435Z" fill="#fff" stroke="#7577aa" stroke-linecap="round" stroke-linejoin="round" stroke-width="4.436"/>
        <path id="Caminho_18" data-name="Caminho 18" d="M220.364,236.731a125.529,125.529,0,0,1,8.029,45.377" fill="none" stroke="#7577aa" stroke-linecap="round" stroke-linejoin="round" stroke-width="4.436"/>
        <path id="Caminho_19" data-name="Caminho 19" d="M257.269,204.307V222.67A20.759,20.759,0,0,1,254.74,232.7l-13,24.84L228.7,232.7a21.247,21.247,0,0,1-2.484-10.025V204.307Z" fill="#fff"/>
        <path id="Caminho_20" data-name="Caminho 20" d="M257.269,204.307V222.67A20.759,20.759,0,0,1,254.74,232.7l-13,24.84L228.7,232.7a21.247,21.247,0,0,1-2.484-10.025V204.307Z" fill="none" stroke="#7577aa" stroke-linecap="round" stroke-linejoin="round" stroke-width="4.436"/>
        <path id="Caminho_21" data-name="Caminho 21" d="M263.124,236.731a125.53,125.53,0,0,0-8.029,45.377" fill="none" stroke="#7577aa" stroke-linecap="round" stroke-linejoin="round" stroke-width="4.436"/>
        <path id="Caminho_22" data-name="Caminho 22" d="M228.437,344.03h15.525a11.089,11.089,0,0,1,11.089,11.089h0a11.089,11.089,0,0,1-11.089,11.089H228.437Z" fill="#fff" stroke="#7577aa" stroke-linecap="round" stroke-linejoin="round" stroke-width="4.436"/>
        <line id="Linha_13" data-name="Linha 13" y1="38.235" transform="translate(199.605 278.56)" fill="none" stroke="#7577aa" stroke-linecap="round" stroke-linejoin="round" stroke-width="4.436"/>
        <path id="Caminho_23" data-name="Caminho 23" d="M172.991,296.258v20.36c0,25.9,18.275,50.877,55.446,50.877V345.317A4.436,4.436,0,0,0,224,340.881a23.686,23.686,0,0,1-24.4-24.263V295.46" fill="#fff" stroke="#7577aa" stroke-linecap="round" stroke-linejoin="round" stroke-width="4.436"/>
        <path id="Caminho_24" data-name="Caminho 24" d="M286.1,157.732V146.643a44.357,44.357,0,1,0-88.713,0v11.089a8.871,8.871,0,0,0,0,17.743h.532a44.357,44.357,0,0,0,87.649,0h.532a8.871,8.871,0,0,0,0-17.743Z" fill="#fff" stroke="#7577aa" stroke-linecap="round" stroke-linejoin="round" stroke-width="4.436"/>
        <circle id="Elipse_7" data-name="Elipse 7" cx="5.545" cy="5.545" r="5.545" transform="translate(210.694 171.039)" fill="#d6daff"/>
        <circle id="Elipse_8" data-name="Elipse 8" cx="5.545" cy="5.545" r="5.545" transform="translate(261.704 171.039)" fill="#d6daff"/>
        <path id="Caminho_25" data-name="Caminho 25" d="M255.051,187.85a19.162,19.162,0,0,1-26.614,0" fill="none" stroke="#7577aa" stroke-linecap="round" stroke-linejoin="round" stroke-width="4.436"/>
        <path id="Caminho_26" data-name="Caminho 26" d="M230.655,162.168a7.23,7.23,0,0,0-13.307,0" fill="none" stroke="#7577aa" stroke-linecap="round" stroke-linejoin="round" stroke-width="4.436"/>
        <path id="Caminho_27" data-name="Caminho 27" d="M266.14,162.168a7.23,7.23,0,0,0-13.307,0" fill="none" stroke="#7577aa" stroke-linecap="round" stroke-linejoin="round" stroke-width="4.436"/>
        <path id="Caminho_28" data-name="Caminho 28" d="M236.421,93.149c-32.026,0-45.377,23.376-45.377,45.333v18.541c13.307,0,13.307-16.013,13.307-16.013s32.025,5.323,53.228-10.69c0,0,13.307,26.614,34.731,26.614V138.3c0-26.836-5.678-37.348-32.026-37.348C260.462,100.956,257.757,93.149,236.421,93.149Z" fill="#fff"/>
        <path id="Caminho_29" data-name="Caminho 29" d="M236.421,93.149c-32.026,0-45.377,23.376-45.377,45.333v18.541c13.307,0,13.307-16.013,13.307-16.013s32.025,5.323,53.228-10.69c0,0,13.307,26.614,34.731,26.614V138.3c0-26.836-5.678-37.348-32.026-37.348C260.462,100.956,257.757,93.149,236.421,93.149Z" fill="none" stroke="#7577aa" stroke-linecap="round" stroke-linejoin="round" stroke-width="4.436"/>
        <path id="Caminho_30" data-name="Caminho 30" d="M226.973,173.257h-14.46a10.867,10.867,0,0,1-10.69-10.912v-8.871a4.436,4.436,0,0,1,4.436-4.436h26.969a5.323,5.323,0,0,1,5.278,5.944l-.932,8.561A10.912,10.912,0,0,1,226.973,173.257Z" fill="none" stroke="#7577aa" stroke-linecap="round" stroke-linejoin="round" stroke-width="4.436"/>
        <path id="Caminho_31" data-name="Caminho 31" d="M256.515,173.257h14.46a10.867,10.867,0,0,0,10.69-10.912v-8.871a4.436,4.436,0,0,0-4.436-4.436H250.26a5.367,5.367,0,0,0-5.323,5.944l.976,8.561A10.867,10.867,0,0,0,256.515,173.257Z" fill="none" stroke="#7577aa" stroke-linecap="round" stroke-linejoin="round" stroke-width="4.436"/>
        <line id="Linha_14" data-name="Linha 14" x2="7.053" transform="translate(238.195 157.732)" fill="none" stroke="#7577aa" stroke-linecap="round" stroke-linejoin="round" stroke-width="4.436"/>
        <path id="Caminho_32" data-name="Caminho 32" d="M241.744,71.237c-29.586,0-59.881,20.936-59.881,68.753h8.871c0-42.494,22.178-57.664,51.01-59.881,28.832,2.218,51.01,17.477,51.01,59.881h8.871C301.625,92.173,271.33,71.281,241.744,71.237Z" fill="#fff" stroke="#7577aa" stroke-linecap="round" stroke-linejoin="round" stroke-width="4.436"/>
        <path id="Caminho_33" data-name="Caminho 33" d="M179.644,139.99h13.307a4.436,4.436,0,0,1,4.436,4.436v37.7a4.436,4.436,0,0,1-4.436,4.436H179.644Z" fill="#d6daff" stroke="#7577aa" stroke-linecap="round" stroke-linejoin="round" stroke-width="4.436"/>
        <path id="Caminho_34" data-name="Caminho 34" d="M179.644,186.564c-9.8,0-17.743-10.424-17.743-23.287s7.94-23.287,17.743-23.287Z" fill="#fff"/>
        <path id="Caminho_35" data-name="Caminho 35" d="M179.644,186.564c-9.8,0-17.743-10.424-17.743-23.287s7.94-23.287,17.743-23.287Z" fill="none" stroke="#7577aa" stroke-linejoin="round" stroke-width="4.436"/>
        <path id="Caminho_36" data-name="Caminho 36" d="M286.1,139.99h13.307a4.436,4.436,0,0,1,4.436,4.436v37.7a4.436,4.436,0,0,1-4.436,4.436H286.1Z" transform="translate(589.944 326.554) rotate(180)" fill="#d6daff" stroke="#7577aa" stroke-linecap="round" stroke-linejoin="round" stroke-width="4.436"/>
        <path id="Caminho_37" data-name="Caminho 37" d="M303.843,186.564c9.8,0,17.743-10.424,17.743-23.287s-7.94-23.287-17.743-23.287Z" fill="#fff"/>
        <path id="Caminho_38" data-name="Caminho 38" d="M303.843,186.564c9.8,0,17.743-10.424,17.743-23.287s-7.94-23.287-17.743-23.287Z" fill="none" stroke="#7577aa" stroke-linejoin="round" stroke-width="4.436"/>
        <path id="Caminho_39" data-name="Caminho 39" d="M272.572,74.874a59.527,59.527,0,0,0-61.656,0,8.1,8.1,0,1,0,8.428,13.839,43.248,43.248,0,0,1,44.8,0A8.029,8.029,0,0,0,272.572,75.1Z" fill="#d6daff"/>
        <path id="Caminho_40" data-name="Caminho 40" d="M272.572,74.874a59.527,59.527,0,0,0-61.656,0,8.1,8.1,0,1,0,8.428,13.839,43.248,43.248,0,0,1,44.8,0A8.029,8.029,0,0,0,272.572,75.1Z" fill="none" stroke="#7577aa" stroke-linecap="round" stroke-linejoin="round" stroke-width="4.436"/>
        <line id="Linha_15" data-name="Linha 15" y1="2.706" transform="translate(285.391 278.56)" fill="none" stroke="#7577aa" stroke-linecap="round" stroke-linejoin="round" stroke-width="4.436"/>
        <line id="Linha_16" data-name="Linha 16" y1="40.897" transform="translate(285.391 278.56)" fill="none" stroke="#7577aa" stroke-linecap="round" stroke-linejoin="round" stroke-width="4.436"/>
        <ellipse id="Elipse_9" data-name="Elipse 9" cx="66.535" cy="6.653" rx="66.535" ry="6.653" transform="translate(30.163 350.684)" fill="#f0f2ff"/>
        <ellipse id="Elipse_10" data-name="Elipse 10" cx="86.495" cy="6.653" rx="86.495" ry="6.653" transform="translate(203.153 363.991)" fill="#f0f2ff"/>
        <rect id="Retângulo_24" data-name="Retângulo 24" width="106.456" height="11.089" rx="5.545" transform="translate(42.139 341.812)" stroke-width="4.436" stroke="#7577aa" stroke-linecap="round" stroke-linejoin="round" fill="#fff"/>
        <rect id="Retângulo_25" data-name="Retângulo 25" width="106.456" height="11.089" rx="5.545" transform="translate(46.574 330.723)" stroke-width="4.436" stroke="#7577aa" stroke-linecap="round" stroke-linejoin="round" fill="#fff"/>
        <rect id="Retângulo_26" data-name="Retângulo 26" width="106.456" height="11.089" rx="5.545" transform="translate(42.139 319.634)" stroke-width="4.436" stroke="#7577aa" stroke-linecap="round" stroke-linejoin="round" fill="#fff"/>
        <rect id="Retângulo_27" data-name="Retângulo 27" width="106.456" height="11.089" rx="5.545" transform="translate(46.574 308.545)" stroke-width="4.436" stroke="#7577aa" stroke-linecap="round" stroke-linejoin="round" fill="#fff"/>
        <path id="Caminho_50" data-name="Caminho 50" d="M265.7,355.119h-10.69l25.505-78.378a5.323,5.323,0,0,1,5.057-3.682h6.787" fill="#fff" stroke="#7577aa" stroke-linejoin="round" stroke-width="4.436"/>
        <path id="Caminho_51" data-name="Caminho 51" d="M369.757,355.119H265.7l26.614-82.06h96.831a5.278,5.278,0,0,1,4.436,2.218,5.19,5.19,0,0,1,.754,4.746Z" fill="#fff" stroke="#7577aa" stroke-linejoin="round" stroke-width="4.436"/>
        <path id="Caminho_52" data-name="Caminho 52" d="M369.757,355.119H261.7v13.307h97.585C364.922,368.471,369.757,364.656,369.757,355.119Z" fill="#fff" stroke="#7577aa" stroke-linejoin="round" stroke-width="4.436"/>
        <path id="Caminho_53" data-name="Caminho 53" d="M261.7,355.119H208.476c0,9.271,4.436,13.307,10.513,13.307H261.7Z" fill="#fff" stroke="#7577aa" stroke-linejoin="round" stroke-width="4.436"/>
        <path id="Caminho_55" data-name="Caminho 55" d="M369.757,355.119H265.7l26.614-82.06h96.831a5.278,5.278,0,0,1,4.436,2.218,5.19,5.19,0,0,1,.754,4.746Z" fill="none" stroke="#7577aa" stroke-linejoin="round" stroke-width="4.436"/>
        <text id="_" data-name="&lt;/&gt;" transform="translate(333.598 322.675)" fill="#764b8e" font-size="20" font-family="Consolas-Bold, Consolas" font-weight="700" letter-spacing="-0.03em"><tspan x="-15.894" y="0">&lt;/&gt;</tspan></text>
      </g>
    </g>
    <g id="robot-arm" transform="translate(1180 330.46)">
      <g id="Agrupar_16" data-name="Agrupar 16" transform="translate(108.443 114.276)">
        <g id="Agrupar_15" data-name="Agrupar 15">
          <path id="Caminho_56" data-name="Caminho 56" d="M431.472,451.9A2.527,2.527,0,1,0,434,454.425,2.528,2.528,0,0,0,431.472,451.9Z" transform="translate(-428.945 -451.898)" fill="#7577aa"/>
        </g>
      </g>
      <g id="Agrupar_18" data-name="Agrupar 18" transform="translate(92.521 114.276)">
        <g id="Agrupar_17" data-name="Agrupar 17">
          <path id="Caminho_57" data-name="Caminho 57" d="M368.492,451.9a2.527,2.527,0,1,0,2.527,2.527A2.528,2.528,0,0,0,368.492,451.9Z" transform="translate(-365.965 -451.898)" fill="#7577aa"/>
        </g>
      </g>
      <g id="Agrupar_20" data-name="Agrupar 20" transform="translate(77.357 114.276)">
        <g id="Agrupar_19" data-name="Agrupar 19">
          <path id="Caminho_58" data-name="Caminho 58" d="M308.511,451.9a2.527,2.527,0,1,0,2.527,2.527A2.528,2.528,0,0,0,308.511,451.9Z" transform="translate(-305.984 -451.898)" fill="#7577aa"/>
        </g>
      </g>
      <g id="Agrupar_22" data-name="Agrupar 22" transform="translate(60.676 114.276)">
        <g id="Agrupar_21" data-name="Agrupar 21">
          <path id="Caminho_59" data-name="Caminho 59" d="M242.532,451.9a2.527,2.527,0,1,0,2.527,2.527A2.528,2.528,0,0,0,242.532,451.9Z" transform="translate(-240.005 -451.898)" fill="#7577aa"/>
        </g>
      </g>
      <g id="Agrupar_24" data-name="Agrupar 24" transform="translate(45.512 114.276)">
        <g id="Agrupar_23" data-name="Agrupar 23">
          <path id="Caminho_60" data-name="Caminho 60" d="M182.551,451.9a2.527,2.527,0,1,0,2.527,2.527A2.528,2.528,0,0,0,182.551,451.9Z" transform="translate(-180.024 -451.898)" fill="#7577aa"/>
        </g>
      </g>
      <g id="Agrupar_26" data-name="Agrupar 26" transform="translate(30.348 114.276)">
        <g id="Agrupar_25" data-name="Agrupar 25">
          <path id="Caminho_61" data-name="Caminho 61" d="M122.57,451.9a2.527,2.527,0,1,0,2.527,2.527A2.528,2.528,0,0,0,122.57,451.9Z" transform="translate(-120.043 -451.898)" fill="#7577aa"/>
        </g>
      </g>
      <g id="Agrupar_28" data-name="Agrupar 28" transform="translate(15.184 114.276)">
        <g id="Agrupar_27" data-name="Agrupar 27">
          <path id="Caminho_62" data-name="Caminho 62" d="M62.589,451.9a2.527,2.527,0,1,0,2.527,2.527A2.528,2.528,0,0,0,62.589,451.9Z" transform="translate(-60.062 -451.898)" fill="#7577aa"/>
        </g>
      </g>
      <g id="Agrupar_30" data-name="Agrupar 30" transform="translate(0 0.04)">
        <g id="Agrupar_29" data-name="Agrupar 29" transform="translate(0 0)">
          <path id="Caminho_63" data-name="Caminho 63" d="M116.783,104.146H113.5V78.387a2.527,2.527,0,0,0-2.527-2.527H89.993a2.527,2.527,0,0,0-2.527,2.527v25.758H65.731V70.805a20.042,20.042,0,0,0-4.09-12.194A20.38,20.38,0,0,0,51.9,51.621L35.309,35.84,86.95,29.558a17.563,17.563,0,0,0,3.043,2.688v8.231H87.466a2.527,2.527,0,0,0-2.26,1.4L80.151,51.984a2.527,2.527,0,0,0,.473,2.917L90.733,65.01a2.528,2.528,0,1,0,3.575-3.575l-8.821-8.821,3.542-7.083h22.149l3.542,7.083L105.9,61.436a2.527,2.527,0,1,0,3.574,3.575L119.581,54.9a2.527,2.527,0,0,0,.473-2.917L115,41.874a2.527,2.527,0,0,0-2.26-1.4h-2.527v-8.23a17.691,17.691,0,1,0-25.687-22.9L22.937,10.656a2.525,2.525,0,0,0-.638.1A17.691,17.691,0,1,0,16.728,45.5L28.219,60.333a20.026,20.026,0,0,0-2.925,10.473v33.34H12.657a12.657,12.657,0,0,0,0,25.314H116.783a12.657,12.657,0,1,0,0-25.314ZM105.157,40.477H95.048V34.685a17.7,17.7,0,0,0,10.109,0v5.792Zm-16.7-27.656h0a12.655,12.655,0,1,1-.989,4.911A12.619,12.619,0,0,1,88.455,12.821Zm4.066,68.093h15.922v23.251H92.521ZM49.844,56.271l.005,0a15.165,15.165,0,1,1-19.5,14.533,15.172,15.172,0,0,1,19.5-14.535ZM60.676,84.158v20.009H30.348V84.158a20.177,20.177,0,0,0,30.328,0Zm22.044-69.72a17.771,17.771,0,0,0-.309,3.293A17.579,17.579,0,0,0,83.9,24.838L35.158,30.766a17.689,17.689,0,0,0-4.715-15.215ZM17.2,40.464a12.622,12.622,0,1,1,12.159-7.712,13,13,0,0,1-.6,1.222,12.689,12.689,0,0,1-10.236,6.47A2.535,2.535,0,0,0,17.2,40.464Zm5.407,4.374a17.8,17.8,0,0,0,8.768-5.764l12.2,11.609a20.364,20.364,0,0,0-12.11,5.589Zm99.522,77.311a7.511,7.511,0,0,1-5.345,2.216H12.657a7.562,7.562,0,0,1,0-15.123H27.821a2.54,2.54,0,0,0,.309-.02H62.9a2.538,2.538,0,0,0,.309.02h26.79a2.54,2.54,0,0,0,.309-.02h20.36a2.538,2.538,0,0,0,.309.02h5.813a7.559,7.559,0,0,1,5.345,12.907Z" transform="translate(0 -0.04)" fill="#7577aa"/>
        </g>
      </g>
      <g id="Agrupar_32" data-name="Agrupar 32" transform="translate(92.521 10.149)">
        <g id="Agrupar_31" data-name="Agrupar 31">
          <path id="Caminho_64" data-name="Caminho 64" d="M373.547,40.028a7.582,7.582,0,1,0,7.582,7.582A7.591,7.591,0,0,0,373.547,40.028Zm0,10.109a2.527,2.527,0,1,1,2.527-2.527A2.53,2.53,0,0,1,373.547,50.137Z" transform="translate(-365.965 -40.028)" fill="#7577aa"/>
        </g>
      </g>
      <g id="Agrupar_34" data-name="Agrupar 34" transform="translate(10.13 20.259)">
        <g id="Agrupar_33" data-name="Agrupar 33">
          <path id="Caminho_65" data-name="Caminho 65" d="M47.65,80.016A7.582,7.582,0,1,0,55.232,87.6,7.591,7.591,0,0,0,47.65,80.016Zm0,10.109A2.527,2.527,0,1,1,50.177,87.6,2.53,2.53,0,0,1,47.65,90.125Z" transform="translate(-40.068 -80.016)" fill="#7577aa"/>
        </g>
      </g>
      <g id="Agrupar_36" data-name="Agrupar 36" transform="translate(35.403 60.696)">
        <g id="Agrupar_35" data-name="Agrupar 35">
          <path id="Caminho_66" data-name="Caminho 66" d="M150.146,239.965a10.109,10.109,0,1,0,10.109,10.109A10.12,10.12,0,0,0,150.146,239.965Zm0,15.164a5.055,5.055,0,1,1,5.055-5.055A5.06,5.06,0,0,1,150.146,255.129Z" transform="translate(-140.037 -239.965)" fill="#7577aa"/>
        </g>
      </g>
    </g>
  </g>
</svg>
